<?xml version="1.0" encoding="UTF-8" standalone="no"?>
<!-- Created with Inkscape (http://www.inkscape.org/) -->

<svg
   version="1.1"
   id="svg9"
   width="325"
   height="303"
   viewBox="0 0 325 303"
   sodipodi:docname="SFDLOGOHUMAN.svg"
   inkscape:version="1.1 (c68e22c387, 2021-05-23)"
   xmlns:inkscape="http://www.inkscape.org/namespaces/inkscape"
   xmlns:sodipodi="http://sodipodi.sourceforge.net/DTD/sodipodi-0.dtd"
   xmlns="http://www.w3.org/2000/svg"
   xmlns:svg="http://www.w3.org/2000/svg">
  <sodipodi:namedview
     id="namedview10"
     pagecolor="#ffffff"
     bordercolor="#666666"
     borderopacity="1.0"
     inkscape:pageshadow="2"
     inkscape:pageopacity="0"
     inkscape:pagecheckerboard="0"
     showgrid="false"
     showguides="false"
     inkscape:zoom="1.5635695"
     inkscape:cx="151.89603"
     inkscape:cy="184.83349"
     inkscape:window-width="1440"
     inkscape:window-height="898"
     inkscape:window-x="-6"
     inkscape:window-y="-6"
     inkscape:window-maximized="1"
     inkscape:current-layer="svg9" />
  <defs
     id="defs13">
    <inkscape:path-effect
       effect="bspline"
       id="path-effect62"
       is_visible="true"
       lpeversion="1"
       weight="33.333333"
       steps="2"
       helper_size="0"
       apply_no_weight="true"
       apply_with_weight="true"
       only_selected="false" />
    <inkscape:path-effect
       effect="bspline"
       id="path-effect58"
       is_visible="true"
       lpeversion="1"
       weight="33.333333"
       steps="2"
       helper_size="0"
       apply_no_weight="true"
       apply_with_weight="true"
       only_selected="false" />
    <inkscape:path-effect
       effect="bspline"
       id="path-effect54"
       is_visible="true"
       lpeversion="1"
       weight="33.333333"
       steps="2"
       helper_size="0"
       apply_no_weight="true"
       apply_with_weight="true"
       only_selected="false" />
    <inkscape:path-effect
       effect="bspline"
       id="path-effect50"
       is_visible="true"
       lpeversion="1"
       weight="33.333333"
       steps="2"
       helper_size="0"
       apply_no_weight="true"
       apply_with_weight="true"
       only_selected="false" />
    <inkscape:path-effect
       effect="bspline"
       id="path-effect46"
       is_visible="true"
       lpeversion="1"
       weight="33.333333"
       steps="2"
       helper_size="0"
       apply_no_weight="true"
       apply_with_weight="true"
       only_selected="false" />
    <inkscape:path-effect
       effect="bspline"
       id="path-effect42"
       is_visible="true"
       lpeversion="1"
       weight="33.333333"
       steps="2"
       helper_size="0"
       apply_no_weight="true"
       apply_with_weight="true"
       only_selected="false" />
    <inkscape:path-effect
       effect="bspline"
       id="path-effect197"
       is_visible="true"
       lpeversion="1"
       weight="33.333333"
       steps="2"
       helper_size="0"
       apply_no_weight="true"
       apply_with_weight="true"
       only_selected="false" />
    <clipPath
       clipPathUnits="userSpaceOnUse"
       id="clipPath112">
      <path
         id="path114"
         style="fill:#ff0000;fill-opacity:1;fill-rule:nonzero;stroke:none"
         d="m 451.69336,147.79492 c -0.011,0.0163 -0.0222,0.0325 -0.0332,0.0488 -0.29766,3.0896 -1.25597,6.53727 -2.01172,9.875 0.91767,-0.71859 3.23491,-2.5153 3.46484,-2.69727 0.0722,-0.0921 0.14052,-0.18727 0.21289,-0.27929 1.85953,-2.36444 3.64963,-4.83471 5.78321,-6.94727 z m 29.66797,0 c -0.0119,0.0462 -0.0233,0.0925 -0.0352,0.13867 2.5e-4,0.30002 -1.7e-4,0.63518 0,0.94727 0.16959,-0.15518 0.34562,-0.30425 0.51367,-0.46094 0.34079,-0.12558 0.72037,-0.36249 1.10938,-0.625 z m 12.625,0 c -2.70515,17.00497 -5.80662,36.19824 -7.34571,43.47266 -1.01492,4.79712 -2.01731,9.60561 -3.06054,14.4043 -0.42595,3.03442 -1.37937,9.50535 -1.89649,12.97656 0.41784,-1.18297 0.85461,-2.36031 1.2461,-3.55078 l 7.79297,-39.42969 c 1.0975,-5.63269 1.84971,-11.36032 2.65429,-17.07227 0.34629,-3.59743 0.62505,-7.19906 0.90235,-10.80078 z m -29.07813,18.22266 c -0.37873,0.72466 -0.75821,1.45474 -1.10742,2.12109 0.33514,-0.41783 0.64171,-0.79743 0.97266,-1.20898 0.0432,-0.30584 0.0879,-0.61063 0.13476,-0.91211 z m -9.61914,3.36523 c -0.39985,0.43218 -0.80079,0.86322 -1.20117,1.29492 0.31103,0.52054 0.62164,1.0408 0.89453,1.54102 0.0969,-0.94826 0.19599,-1.89428 0.30664,-2.83594 z m -0.30664,2.83594 c -0.21317,2.08714 -0.46684,4.1536 -1.01953,6.08008 0.90256,-0.835 1.7898,-1.70724 2.67773,-2.57617 -0.36279,-1.06613 -0.98594,-2.27164 -1.6582,-3.50391 z m 1.6582,3.50391 c 0.12532,0.36824 0.21126,0.71683 0.29102,1.06054 1.56299,-1.97871 2.14355,-2.74073 3.92969,-4.98242 -1.44337,1.22197 -2.83483,2.56567 -4.22071,3.92188 z m -6.50195,-0.78907 c -0.1007,0.10768 -0.20004,0.21658 -0.30078,0.32422 0.0649,1.81049 0.12775,3.62107 0.19141,5.43164 0.01,0.25716 0.0197,0.51433 0.0293,0.77149 0.14642,-0.10152 0.29264,-0.20348 0.4375,-0.3086 -0.21969,-1.72996 -0.24467,-4.27227 -0.35742,-6.21875 z m -0.0801,6.52735 c -0.3343,0.2318 -0.65677,0.49205 -1,0.70312 0.35581,0.0268 0.70026,0.0481 1.0293,0.0606 -0.01,-0.25456 -0.0198,-0.50911 -0.0293,-0.76367 z m 0.0293,0.76367 c 0.0385,1.03057 0.0769,2.06121 0.11523,3.0918 0.32698,-0.42541 1.86657,-2.35975 2.50586,-3.17774 -0.17833,0.0207 -0.35245,0.0445 -0.54296,0.0586 -0.10272,0.14931 -0.17406,0.31363 -0.28516,0.45898 -0.58656,0.76733 -0.93208,0.43528 -1.16602,-0.39453 -0.19069,-0.002 -0.42652,-0.0296 -0.62695,-0.0371 z m 53.04492,-5.4668 c -0.78516,9.67207 -2.08335,30.66771 -3.92578,38 -0.64669,2.57364 -2.85166,4.46105 -4.35937,6.65625 h 8.28515 z m -41.71289,9.57227 c -1.94233,1.86036 -3.72166,3.53026 -5.47461,5.14258 -2.79626,3.70293 -4.20603,5.75749 -5.23633,7.33203 0.0437,1.17907 0.0889,2.35804 0.13282,3.53711 1.38545,-0.602 2.7805,-1.1828 4.1914,-1.72266 1.31962,-0.50493 2.69084,-0.84513 4.07422,-1.14453 0.76796,-4.38217 1.54046,-8.76311 2.3125,-13.14453 z m 12.0332,16.41211 c -0.15973,2.53227 -0.23025,3.69877 -0.43164,6.79101 -0.2337,3.5885 -0.43758,7.18214 -0.63281,10.77539 0.50739,-1.49174 0.946,-3.00455 1.32617,-4.58203 0.0899,-0.60896 0.25789,-1.74304 0.33985,-2.30273 -0.17482,-3.56608 -0.34422,-7.13236 -0.60157,-10.68164 z m -15.91601,5.81836 c -2.1446,0.57924 -3.70245,1.20202 -6.36719,2.52148 0.0807,2.11323 0.15535,4.22674 0.23828,6.33985 0.052,1.32571 0.20563,2.65866 0.36914,3.99218 h 3.39454 c 0.93103,-3.90402 1.54796,-7.88628 2.36523,-12.85351 z m 6.5918,10.46875 c -0.15484,0.80658 -0.34085,1.59167 -0.50977,2.38476 h 0.40039 c 0.0408,-0.79481 0.0645,-1.59003 0.10938,-2.38476 z m 26.22656,0.85937 c -0.11537,0.50816 -0.23877,1.01644 -0.35547,1.52539 h 4.18945 c -1.21086,-0.575 -2.58899,-0.98385 -3.83398,-1.52539 z" />
    </clipPath>
  </defs>
  <path
     style="fill:#000000;fill-opacity:1;stroke:#001128;stroke-width:0;stroke-linejoin:bevel"
     d="m 272.72958,9.1025198 c -3.29618,2.0190582 -4.91532,6.4268552 -6.38036,9.7392632 0.13633,14.66861 1.94526,29.724088 -1.54547,44.128867 -4.40637,10.078577 -14.05191,16.547206 -19.85662,25.752643 -2.83682,3.256887 -4.48054,8.434662 -8.65511,10.076584 -2.25244,-2.116477 0.27988,-6.033304 1.2393,-8.426571 3.02615,-3.507315 -0.57644,-7.541028 -1.52036,-11.243716 -1.9994,-4.256191 -7.16443,-5.621106 -10.32418,-8.920145 -3.9152,-4.408221 -10.84238,-3.205226 -14.11409,1.302858 -2.50564,2.165639 -3.79988,8.493584 -8.20188,6.309434 -5.77165,-4.239345 -14.87476,3.037434 -11.22483,9.502245 2.79414,5.646285 10.15826,4.913059 14.35018,9.008835 3.28103,2.79428 8.08645,3.225709 11.19484,6.020873 -1.41488,2.44049 -5.83934,0.91125 -8.01451,0.11617 -11.44416,-5.595513 -19.7666,-15.891704 -31.15563,-21.662647 -8.4849,-3.989378 -16.06585,-9.484224 -22.96797,-15.795076 -4.39142,-3.237496 -9.84106,-6.936055 -15.49,-6.251106 0.67692,4.705047 3.99735,9.229257 7.57481,12.422747 11.70235,8.275884 24.66661,14.889002 35.0585,24.947922 11.60847,11.08262 23.55342,22.26391 32.2242,35.87545 4.93258,9.74389 6.73483,23.37211 -0.90189,32.21045 -6.2297,3.47507 -14.06606,4.20325 -18.92256,10.02628 -7.93031,9.074 -20.30989,11.73601 -29.85405,18.62536 -12.15327,6.83425 -20.76509,18.54143 -33.2706,24.76067 -15.50362,6.25663 -33.296598,7.81601 -46.607743,18.8234 -12.396578,9.2635 -22.47429,22.48657 -37.942716,26.86759 -10.241916,4.22858 -21.974108,6.04575 -30.612346,13.38346 -3.976648,3.85917 -6.352744,9.53838 -6.756625,14.97475 2.026189,2.03819 5.835683,0.0143 8.404248,-0.0275 20.111458,-4.08953 32.703118,-22.59004 51.623545,-29.38654 18.724003,-6.70343 36.497177,-15.68833 54.818037,-23.34197 21.41641,-7.7566 45.82494,-5.90129 65.81052,-17.77948 6.5931,-3.64352 11.19744,-9.96879 17.25319,-14.17155 3.27632,0.83854 3.80527,5.55021 5.77605,7.92083 8.88396,16.84729 21.44915,31.92796 37.71318,42.07588 5.2892,3.99528 12.00227,6.36791 16.52594,11.19516 -1.89634,3.30151 -7.01099,2.71154 -10.31294,3.45763 -11.63059,0.69511 -23.61555,0.57188 -34.90985,-2.51453 -8.62829,-3.72977 -17.56387,-6.57228 -26.62053,-9.02882 -3.31994,-0.52871 -6.653,-4.35708 -10.0144,-2.74312 -2.89099,4.50202 2.08398,9.372 5.33635,12.16792 6.79667,6.00378 15.78362,8.28043 24.60986,9.03154 17.23293,2.50194 32.70151,12.17839 50.32887,12.80846 9.63619,0.49751 19.50409,1.43765 29.03136,-0.34222 5.14936,-1.86743 7.0674,-8.03753 4.98762,-12.87739 -3.9369,-13.83044 -13.01239,-25.4063 -20.48826,-37.47065 -9.42031,-14.12729 -21.12112,-26.66802 -29.93827,-41.18431 -3.63279,-9.44829 1.02346,-19.44311 3.06445,-28.73169 4.2802,-16.27408 10.59667,-32.04484 13.61914,-48.62411 1.77593,-7.75105 -7.73362,-13.10525 -4.84933,-20.87439 2.96927,-12.674449 10.35753,-23.874662 14.93726,-35.783376 -1.58009,-14.978954 -3.01011,-30.368147 0.31245,-45.197519 0.12038,-3.545106 -0.21993,-10.000962 -4.34078,-11.1548652 z"
     id="path5712" />
</svg>
